<?xml version="1.0" encoding="utf-8"?>
<!-- Generator: Adobe Illustrator 18.0.0, SVG Export Plug-In . SVG Version: 6.00 Build 0)  -->
<!DOCTYPE svg PUBLIC "-//W3C//DTD SVG 1.1//EN" "http://www.w3.org/Graphics/SVG/1.1/DTD/svg11.dtd">
<svg version="1.1" id="Calque_1" xmlns="http://www.w3.org/2000/svg" xmlns:xlink="http://www.w3.org/1999/xlink" x="0px" y="0px"
	 viewBox="0 0 100 100" enable-background="new 0 0 100 100" xml:space="preserve">
<circle fill="#FFFFFF" cx="50" cy="50" r="50"/>
<path display="none" d="M28.5,49.8H42v30.4c0,1.2,1.9,2.2,4.2,2.2h7.4c2.3,0,4.2-1,4.2-2.2V49.8h13.5c1.4,0,2.5-0.9,2.5-1.9
	c0,0-20.2-29.7-22.1-31.1c-1.8-1.4-3.7,0-3.7,0L26.1,47.9C26.1,49,27.2,49.8,28.5,49.8z"/>
<g display="none">
	<path display="inline" fill="#09080A" d="M29.1,18.9c-0.9,0.2-1.8-0.7-2-1.8c-0.2-1.1,0.2-2.3,1.1-2.5c0.9-0.2,1.8,0.7,2,1.8
		C30.5,17.6,30,18.7,29.1,18.9z M27.5,19.4c0-0.9-0.5-1.8-1.1-1.8c-0.7,0-1.4,0.7-1.4,1.8c0,0.9,0.5,1.8,1.1,1.8
		C26.9,21.2,27.5,20.5,27.5,19.4z M34.3,14.6c0-1.6-0.9-2.7-1.8-2.7c-1.1,0-1.8,1.4-1.8,2.7c0,1.6,0.9,2.7,1.8,2.7
		C33.4,17.3,34.3,16,34.3,14.6z M24.6,30.4c-0.2,9,5.9,12,5.9,21.2c0,3.4,2.3,7.2,6.3,7.2c5.9,0,7.2-3.2,7.5-6.8
		c0.2-6.8-6.1-7.5-6.1-13.3c0-7.5,8.1-7.2,8.1-14c0-4.5-4.1-5.2-6.1-5.2C36.1,19.6,25,21.4,24.6,30.4z M48.1,13
		c0.5-2.7-0.7-5-2.5-5.2s-3.6,1.6-3.8,4.3c-0.5,2.7,0.7,5,2.5,5.2C45.8,17.6,47.6,15.5,48.1,13z M40.2,13.5c0.2-1.8-0.7-3.4-2-3.6
		c-1.4-0.2-2.5,1.4-2.7,3.2c-0.2,1.8,0.7,3.4,2,3.6C38.8,16.7,40,15.3,40.2,13.5z"/>
</g>
<g display="none">
	<path display="inline" fill="#09080A" d="M69.5,47.8c0.2-1.1,1.1-2,2-1.8c0.9,0.2,1.4,1.4,1.1,2.5c-0.2,1.1-1.1,2-2,1.8
		C69.8,50.3,69.3,49.2,69.5,47.8z M73.6,52.8c0.7,0,1.1-0.9,1.1-1.8s-0.7-1.8-1.4-1.8s-1.1,0.9-1.1,1.8
		C72.5,52.1,72.9,52.8,73.6,52.8z M67.5,49c1.1,0,1.8-1.4,1.8-2.7c0-1.6-0.9-2.7-1.8-2.7c-1.1,0-1.8,1.4-1.8,2.7
		C65.5,47.6,66.4,49,67.5,49z M59.8,51.2c-2,0-6.1,0.5-6.1,5.2c0,6.8,8.1,6.5,8.1,14c0,5.9-6.3,6.5-6.1,13.3
		c0.2,3.6,1.6,6.8,7.5,6.8c4.1,0,6.3-3.8,6.3-7.2c0-9.3,6.1-12.2,5.9-21.2C75,52.8,63.9,51.2,59.8,51.2z M55.8,48.7
		c1.8-0.2,2.9-2.7,2.5-5.2c-0.5-2.7-2.3-4.5-3.8-4.3c-1.8,0.2-2.9,2.7-2.5,5.2C52.1,47.1,54,49.2,55.8,48.7z M62.3,48
		c1.4-0.2,2.3-1.8,2-3.6c-0.2-1.8-1.4-3.2-2.7-3.2c-1.4,0.2-2.3,1.8-2,3.6C59.8,46.9,61.2,48.3,62.3,48z"/>
</g>
<g>
	<g>
		<path fill="#010101" d="M60.2,46.5V38h2.1c1.6,0,3-1.3,3-3c0-1.6-1.3-3-3-3h-2.1H47.3h-8.6h-2.1c-1.6,0-3,1.3-3,3c0,1.6,1.3,3,3,3
			h2.1v8.5c-6.8,3.8-11.1,11.1-11.1,19c0,12,9.8,21.8,21.8,21.8s21.8-9.8,21.8-21.8C71.2,57.6,67,50.3,60.2,46.5z M43.8,70
			c-1.2,0-2.2-1-2.2-2.2c0-1.2,1-2.2,2.2-2.2c1.2,0,2.2,1,2.2,2.2C46,69,45,70,43.8,70z M52.2,67.5c-0.5,0-1-0.4-1-1
			c0-0.5,0.4-1,1-1c0.5,0,1,0.4,1,1C53.1,67.1,52.7,67.5,52.2,67.5z M55.7,73.7c-1.2,0-2.2-1-2.2-2.2c0-1.2,1-2.2,2.2-2.2
			c1.2,0,2.2,1,2.2,2.2C57.9,72.7,56.9,73.7,55.7,73.7z M64.6,61.2c-1.8,0-3.4,0.8-4.5,2c-0.7-2.5-3.1-4.4-5.8-4.4
			c-2.2,0-4.1,1.1-5.1,2.9c-0.7-0.3-1.5-0.5-2.4-0.5c-1.2,0-2.3,0.4-3.3,1c-1-2-3.1-3.3-5.4-3.3c-1.2,0-2.4,0.4-3.3,1
			c1.5-3.8,4.4-7,8.3-8.8l1.7-0.8V38h9.5v12.3L56,51c4.3,2,7.5,5.7,8.7,10.1C64.7,61.2,64.6,61.2,64.6,61.2z"/>
		<g>
			<path fill="#010101" d="M48.9,23.6c-0.2-0.4-0.5-0.7-0.7-1c-0.1-0.1-0.1-0.2-0.2-0.3c-0.5-0.6-0.8-1.3-1-1.9
				c-0.4-1.3-0.2-2.8,0.7-4.7c0.6-1.3,1.4-2.6,2.1-3.8c0.1-0.1,0.1-0.3,0-0.4c-0.1-0.1-0.2-0.1-0.3-0.1c-1.2,0.4-2.5,1.4-3.7,2.6
				c-1.2,1.3-1.9,2.8-2.2,4.5c-0.3,1.7,0.2,3.5,1.2,4.9c0.3,0.4,0.6,0.8,1,1.1c0.2,0.2,0.5,0.5,0.7,0.7c0.5,0.6,0.8,1,1.1,1.5
				c0.7,1.3,0.2,2.8-0.6,3.8c-0.1,0.1-0.1,0.2,0,0.4c0.1,0.1,0.2,0.1,0.3,0.1c0,0,0.1,0,0.1,0c1.4-0.4,2.7-1.9,2.8-3.5
				c0.1-0.9,0-1.8-0.3-2.6C49.5,24.8,49.2,24.3,48.9,23.6z"/>
		</g>
		<path fill="#010101" d="M54.8,23.6c-0.1-0.3-0.2-0.6-0.4-0.9c-0.1-0.2-0.3-0.4-0.4-0.5l-0.1-0.1c-0.2-0.3-0.4-0.5-0.4-0.8
			c-0.2-0.6-0.1-1.2,0.3-2.1c0.3-0.6,0.6-1.2,1-1.8c0.1-0.2,0.1-0.4,0-0.5c-0.1-0.2-0.3-0.2-0.5-0.1c-0.6,0.2-1.3,0.7-1.9,1.4
			c-0.6,0.7-1,1.5-1.2,2.4c-0.1,0.9,0.1,1.9,0.7,2.6c0.2,0.2,0.3,0.4,0.5,0.6c0.1,0.1,0.2,0.2,0.3,0.3c0.2,0.3,0.4,0.5,0.5,0.7
			c0.3,0.5,0,1.1-0.2,1.5c-0.1,0.2-0.1,0.4,0,0.5c0.1,0.1,0.2,0.2,0.4,0.2c0,0,0.1,0,0.1,0c0.8-0.2,1.5-1.1,1.6-2
			C55,24.5,55,24,54.8,23.6z"/>
	</g>
</g>
</svg>
