<?xml version="1.0" encoding="utf-8"?>
<!-- Generator: Adobe Illustrator 18.0.0, SVG Export Plug-In . SVG Version: 6.00 Build 0)  -->
<!DOCTYPE svg PUBLIC "-//W3C//DTD SVG 1.1//EN" "http://www.w3.org/Graphics/SVG/1.1/DTD/svg11.dtd">
<svg version="1.1" id="Calque_1" xmlns="http://www.w3.org/2000/svg" xmlns:xlink="http://www.w3.org/1999/xlink" x="0px" y="0px"
	 viewBox="0 0 100 100" enable-background="new 0 0 100 100" xml:space="preserve">
<circle fill="#FFFFFF" cx="50" cy="50" r="50"/>
<path display="none" d="M28.5,49.8H42v30.4c0,1.2,1.9,2.2,4.2,2.2h7.4c2.3,0,4.2-1,4.2-2.2V49.8h13.5c1.4,0,2.5-0.9,2.5-1.9
	c0,0-20.2-29.7-22.1-31.1c-1.8-1.4-3.7,0-3.7,0L26.1,47.9C26.1,49,27.2,49.8,28.5,49.8z"/>
<g display="none">
	<path display="inline" fill="#09080A" d="M29.1,18.9c-0.9,0.2-1.8-0.7-2-1.8c-0.2-1.1,0.2-2.3,1.1-2.5c0.9-0.2,1.8,0.7,2,1.8
		C30.5,17.6,30,18.7,29.1,18.9z M27.5,19.4c0-0.9-0.5-1.8-1.1-1.8c-0.7,0-1.4,0.7-1.4,1.8c0,0.9,0.5,1.8,1.1,1.8
		C26.9,21.2,27.5,20.5,27.5,19.4z M34.3,14.6c0-1.6-0.9-2.7-1.8-2.7c-1.1,0-1.8,1.4-1.8,2.7c0,1.6,0.9,2.7,1.8,2.7
		C33.4,17.3,34.3,16,34.3,14.6z M24.6,30.4c-0.2,9,5.9,12,5.9,21.2c0,3.4,2.3,7.2,6.3,7.2c5.9,0,7.2-3.2,7.5-6.8
		c0.2-6.8-6.1-7.5-6.1-13.3c0-7.5,8.1-7.2,8.1-14c0-4.5-4.1-5.2-6.1-5.2C36.1,19.6,25,21.4,24.6,30.4z M48.1,13
		c0.5-2.7-0.7-5-2.5-5.2s-3.6,1.6-3.8,4.3c-0.5,2.7,0.7,5,2.5,5.2C45.8,17.6,47.6,15.5,48.1,13z M40.2,13.5c0.2-1.8-0.7-3.4-2-3.6
		c-1.4-0.2-2.5,1.4-2.7,3.2c-0.2,1.8,0.7,3.4,2,3.6C38.8,16.7,40,15.3,40.2,13.5z"/>
</g>
<g display="none">
	<path display="inline" fill="#09080A" d="M69.5,47.8c0.2-1.1,1.1-2,2-1.8c0.9,0.2,1.4,1.4,1.1,2.5c-0.2,1.1-1.1,2-2,1.8
		C69.8,50.3,69.3,49.2,69.5,47.8z M73.6,52.8c0.7,0,1.1-0.9,1.1-1.8s-0.7-1.8-1.4-1.8s-1.1,0.9-1.1,1.8
		C72.5,52.1,72.9,52.8,73.6,52.8z M67.5,49c1.1,0,1.8-1.4,1.8-2.7c0-1.6-0.9-2.7-1.8-2.7c-1.1,0-1.8,1.4-1.8,2.7
		C65.5,47.6,66.4,49,67.5,49z M59.8,51.2c-2,0-6.1,0.5-6.1,5.2c0,6.8,8.1,6.5,8.1,14c0,5.9-6.3,6.5-6.1,13.3
		c0.2,3.6,1.6,6.8,7.5,6.8c4.1,0,6.3-3.8,6.3-7.2c0-9.3,6.1-12.2,5.9-21.2C75,52.8,63.9,51.2,59.8,51.2z M55.8,48.7
		c1.8-0.2,2.9-2.7,2.5-5.2c-0.5-2.7-2.3-4.5-3.8-4.3c-1.8,0.2-2.9,2.7-2.5,5.2C52.1,47.1,54,49.2,55.8,48.7z M62.3,48
		c1.4-0.2,2.3-1.8,2-3.6c-0.2-1.8-1.4-3.2-2.7-3.2c-1.4,0.2-2.3,1.8-2,3.6C59.8,46.9,61.2,48.3,62.3,48z"/>
</g>
<path display="none" d="M63.9,68.8h-8.8V49.1c0-0.8-1.2-1.4-2.8-1.4h-4.8c-1.5,0-2.8,0.6-2.8,1.4v19.8h-8.8c-0.9,0-1.6,0.6-1.6,1.2
	c0,0,13.1,19.3,14.3,20.2c1.2,0.9,2.4,0,2.4,0l14.3-20.2C65.5,69.4,64.8,68.8,63.9,68.8z"/>
<g display="none">
	<path display="inline" d="M30,58.8c1.2,0.9,2.4,0,2.4,0l14.3-20.2c0-0.7-0.7-1.2-1.6-1.2h-8.8V17.6c0-0.8-1.2-1.4-2.8-1.4h-4.8
		c-1.5,0-2.8,0.6-2.8,1.4v19.8h-8.8c-0.9,0-1.6,0.6-1.6,1.2C15.7,38.6,28.8,57.9,30,58.8z"/>
	<path display="inline" d="M67.6,58.8c1.2,0.9,2.4,0,2.4,0l14.3-20.2c0-0.7-0.7-1.2-1.6-1.2H74V17.6c0-0.8-1.2-1.4-2.8-1.4h-4.8
		c-1.5,0-2.8,0.6-2.8,1.4v19.8h-8.8c-0.9,0-1.6,0.6-1.6,1.2C53.3,38.6,66.4,57.9,67.6,58.8z"/>
</g>
<g>
	<path fill="#010101" d="M50,12.2L18.5,32h63.1L50,12.2z M67.7,35.9l2,3.9v23.7h7.9V39.9l2-3.9H67.7z M52,35.9l2,3.9v23.7h7.9V39.9
		l2-3.9H52z M36.2,35.9l2,3.9v23.7h7.9V39.9l2-3.9H36.2z M20.4,35.9l2,3.9v23.7h7.9V39.9l2-3.9H20.4z M20.4,67.5l-2,7.9h63.1l-2-7.9
		H20.4z M53.9,24.1c0,2.2-1.8,3.9-3.9,3.9s-3.9-1.8-3.9-3.9s1.8-3.9,3.9-3.9S53.9,21.9,53.9,24.1z"/>
</g>
</svg>
